<svg width="232" height="106" viewBox="0 0 232 106" fill="none" xmlns="http://www.w3.org/2000/svg">
<path d="M99.056 64.296C99.808 64.296 100.388 64.492 100.796 64.884C101.204 65.268 101.408 65.824 101.408 66.552C101.408 67.408 101.152 68.08 100.64 68.568C100.136 69.056 99.436 69.3 98.54 69.3H97.628V69.6L97.676 72H96.704L96.764 69.684L96.704 64.308L99.056 64.296ZM98.9 68.52C99.396 68.44 99.772 68.24 100.028 67.92C100.292 67.6 100.424 67.172 100.424 66.636C100.424 65.644 99.896 65.128 98.84 65.088L97.676 65.124L97.64 68.496L98.9 68.52ZM138.675 64.236C139.731 64.236 140.539 64.56 141.099 65.208C141.667 65.856 141.951 66.788 141.951 68.004C141.951 69.316 141.651 70.328 141.051 71.04C140.451 71.744 139.595 72.096 138.483 72.096C137.443 72.096 136.639 71.76 136.071 71.088C135.511 70.416 135.231 69.46 135.231 68.22C135.231 66.94 135.527 65.956 136.119 65.268C136.719 64.58 137.571 64.236 138.675 64.236ZM138.615 65.016C137.015 65.016 136.215 66.048 136.215 68.112C136.215 69.208 136.407 70.02 136.791 70.548C137.183 71.076 137.771 71.34 138.555 71.34C140.155 71.34 140.955 70.288 140.955 68.184C140.955 67.112 140.759 66.316 140.367 65.796C139.983 65.276 139.399 65.016 138.615 65.016ZM157.451 69.756L157.475 72H156.527L156.575 69.756L156.563 69.252L154.127 64.308H155.159L155.315 64.74L156.995 68.196H157.079L158.927 64.764L159.107 64.308H160.115L157.463 69.216L157.451 69.756ZM187.073 72H185.957L183.389 64.308H184.373L184.553 65.088L186.509 71.028H186.581L188.741 65.136L188.933 64.308H189.893L187.073 72Z" fill="#0DC0D2"/>
<path d="M107.538 71.292L107.442 71.832C107.21 71.968 106.982 72.048 106.758 72.072C106.526 72.04 106.338 71.96 106.194 71.832C106.058 71.696 105.962 71.496 105.906 71.232H105.834C105.354 71.664 104.858 71.944 104.346 72.072C103.754 72.072 103.302 71.932 102.99 71.652C102.686 71.372 102.538 70.972 102.546 70.452L102.558 68.928L102.522 66.564L103.482 66.48L103.41 70.224C103.41 70.552 103.486 70.808 103.638 70.992C103.798 71.176 104.03 71.268 104.334 71.268C104.83 71.268 105.326 71.028 105.822 70.548V66.564L106.734 66.48L106.674 70.824C106.674 70.992 106.698 71.112 106.746 71.184C106.802 71.248 106.894 71.28 107.022 71.28C107.15 71.28 107.29 71.256 107.442 71.208L107.538 71.292ZM111.138 66.492C111.234 66.492 111.338 66.5 111.45 66.516V67.44L111.342 67.476C111.206 67.436 111.058 67.416 110.898 67.416C110.634 67.416 110.39 67.524 110.166 67.74C109.95 67.948 109.734 68.284 109.518 68.748L109.506 69.588L109.566 72H108.618L108.678 69.672L108.63 66.564L109.53 66.48L109.518 67.608H109.59C109.814 67.208 110.062 66.924 110.334 66.756C110.606 66.58 110.874 66.492 111.138 66.492ZM113.997 66.42C114.453 66.42 114.893 66.508 115.317 66.684L115.185 67.464L115.041 67.5C114.641 67.236 114.257 67.104 113.889 67.104C113.617 67.104 113.397 67.18 113.229 67.332C113.061 67.484 112.977 67.668 112.977 67.884C112.977 68.1 113.061 68.276 113.229 68.412C113.405 68.54 113.673 68.688 114.033 68.856C114.345 69 114.593 69.132 114.777 69.252C114.969 69.364 115.133 69.516 115.269 69.708C115.405 69.9 115.473 70.136 115.473 70.416C115.473 70.712 115.397 70.988 115.245 71.244C115.093 71.5 114.869 71.708 114.573 71.868C114.277 72.02 113.925 72.096 113.517 72.096C112.957 72.096 112.425 71.964 111.921 71.7L112.041 70.884L112.149 70.812C112.373 71.004 112.613 71.152 112.869 71.256C113.133 71.36 113.381 71.412 113.613 71.412C113.909 71.412 114.149 71.332 114.333 71.172C114.517 71.004 114.609 70.808 114.609 70.584C114.609 70.368 114.521 70.196 114.345 70.068C114.177 69.932 113.913 69.78 113.553 69.612C113.241 69.468 112.989 69.34 112.797 69.228C112.605 69.108 112.441 68.948 112.305 68.748C112.169 68.548 112.101 68.3 112.101 68.004C112.101 67.54 112.269 67.16 112.605 66.864C112.949 66.568 113.413 66.42 113.997 66.42ZM121.859 71.292L121.763 71.832C121.531 71.968 121.303 72.048 121.079 72.072C120.847 72.04 120.659 71.96 120.515 71.832C120.379 71.696 120.283 71.496 120.227 71.232H120.155C119.675 71.664 119.179 71.944 118.667 72.072C118.075 72.072 117.623 71.932 117.311 71.652C117.007 71.372 116.859 70.972 116.867 70.452L116.879 68.928L116.843 66.564L117.803 66.48L117.731 70.224C117.731 70.552 117.807 70.808 117.959 70.992C118.119 71.176 118.351 71.268 118.655 71.268C119.151 71.268 119.647 71.028 120.143 70.548V66.564L121.055 66.48L120.995 70.824C120.995 70.992 121.019 71.112 121.067 71.184C121.123 71.248 121.215 71.28 121.343 71.28C121.471 71.28 121.611 71.256 121.763 71.208L121.859 71.292ZM123.116 69.672L123.08 66.564L124.004 66.48L123.98 69.588L124.004 72H123.068L123.116 69.672ZM123.56 64.044C123.72 64.044 123.848 64.092 123.944 64.188C124.04 64.284 124.088 64.416 124.088 64.584C124.088 64.76 124.036 64.9 123.932 65.004C123.836 65.108 123.7 65.16 123.524 65.16C123.356 65.16 123.224 65.112 123.128 65.016C123.04 64.92 122.996 64.784 122.996 64.608C122.996 64.44 123.044 64.304 123.14 64.2C123.244 64.096 123.384 64.044 123.56 64.044ZM127.69 71.268C127.954 71.268 128.242 71.188 128.554 71.028L128.662 71.1L128.566 71.724C128.134 71.924 127.734 72.04 127.366 72.072C126.91 71.984 126.582 71.816 126.382 71.568C126.182 71.32 126.082 70.96 126.082 70.488L126.118 69.636L126.106 67.152H125.35L125.302 67.08L125.362 66.516H126.094V65.628L126.922 65.268L127.018 65.352L126.994 66.516H128.626L128.674 66.588L128.614 67.152H126.994L126.934 70.404C126.926 70.724 126.982 70.948 127.102 71.076C127.222 71.204 127.418 71.268 127.69 71.268ZM145.657 63.552C145.945 63.552 146.257 63.588 146.593 63.66L146.521 64.404L146.449 64.464C146.161 64.32 145.869 64.248 145.573 64.248C145.261 64.248 145.021 64.348 144.853 64.548C144.685 64.74 144.597 65.028 144.589 65.412L144.577 66.516H146.017L146.053 66.588L145.993 67.152H144.565L144.541 69.588L144.601 72H143.653L143.725 69.66L143.701 67.152H142.873L142.825 67.08L142.885 66.516H143.701L143.689 65.556C143.681 64.908 143.849 64.412 144.193 64.068C144.537 63.724 145.025 63.552 145.657 63.552ZM162.526 66.408C163.27 66.408 163.846 66.652 164.254 67.14C164.67 67.62 164.878 68.3 164.878 69.18C164.878 70.108 164.662 70.828 164.23 71.34C163.798 71.844 163.182 72.096 162.382 72.096C161.63 72.096 161.046 71.856 160.63 71.376C160.222 70.888 160.018 70.204 160.018 69.324C160.018 68.396 160.234 67.68 160.666 67.176C161.106 66.664 161.726 66.408 162.526 66.408ZM162.466 67.08C161.962 67.08 161.578 67.252 161.314 67.596C161.05 67.94 160.918 68.444 160.918 69.108C160.918 69.876 161.046 70.452 161.302 70.836C161.566 71.22 161.946 71.412 162.442 71.412C162.946 71.412 163.33 71.244 163.594 70.908C163.858 70.572 163.99 70.068 163.99 69.396C163.99 68.636 163.858 68.06 163.594 67.668C163.338 67.276 162.962 67.08 162.466 67.08ZM171.288 71.292L171.192 71.832C170.96 71.968 170.732 72.048 170.508 72.072C170.276 72.04 170.088 71.96 169.944 71.832C169.808 71.696 169.712 71.496 169.656 71.232H169.584C169.104 71.664 168.608 71.944 168.096 72.072C167.504 72.072 167.052 71.932 166.74 71.652C166.436 71.372 166.288 70.972 166.296 70.452L166.308 68.928L166.272 66.564L167.232 66.48L167.16 70.224C167.16 70.552 167.236 70.808 167.388 70.992C167.548 71.176 167.78 71.268 168.084 71.268C168.58 71.268 169.076 71.028 169.572 70.548V66.564L170.484 66.48L170.424 70.824C170.424 70.992 170.448 71.112 170.496 71.184C170.552 71.248 170.644 71.28 170.772 71.28C170.9 71.28 171.04 71.256 171.192 71.208L171.288 71.292ZM174.888 66.492C174.984 66.492 175.088 66.5 175.2 66.516V67.44L175.092 67.476C174.956 67.436 174.808 67.416 174.648 67.416C174.384 67.416 174.14 67.524 173.916 67.74C173.7 67.948 173.484 68.284 173.268 68.748L173.256 69.588L173.316 72H172.368L172.428 69.672L172.38 66.564L173.28 66.48L173.268 67.608H173.34C173.564 67.208 173.812 66.924 174.084 66.756C174.356 66.58 174.624 66.492 174.888 66.492ZM191.003 69.672L190.967 66.564L191.891 66.48L191.867 69.588L191.891 72H190.955L191.003 69.672ZM191.447 64.044C191.607 64.044 191.735 64.092 191.831 64.188C191.927 64.284 191.975 64.416 191.975 64.584C191.975 64.76 191.923 64.9 191.819 65.004C191.723 65.108 191.587 65.16 191.411 65.16C191.243 65.16 191.111 65.112 191.015 65.016C190.927 64.92 190.883 64.784 190.883 64.608C190.883 64.44 190.931 64.304 191.027 64.2C191.131 64.096 191.271 64.044 191.447 64.044ZM195.349 66.42C195.805 66.42 196.245 66.508 196.669 66.684L196.537 67.464L196.393 67.5C195.993 67.236 195.609 67.104 195.241 67.104C194.969 67.104 194.749 67.18 194.581 67.332C194.413 67.484 194.329 67.668 194.329 67.884C194.329 68.1 194.413 68.276 194.581 68.412C194.757 68.54 195.025 68.688 195.385 68.856C195.697 69 195.945 69.132 196.129 69.252C196.321 69.364 196.485 69.516 196.621 69.708C196.757 69.9 196.825 70.136 196.825 70.416C196.825 70.712 196.749 70.988 196.597 71.244C196.445 71.5 196.221 71.708 195.925 71.868C195.629 72.02 195.277 72.096 194.869 72.096C194.309 72.096 193.777 71.964 193.273 71.7L193.393 70.884L193.501 70.812C193.725 71.004 193.965 71.152 194.221 71.256C194.485 71.36 194.733 71.412 194.965 71.412C195.261 71.412 195.501 71.332 195.685 71.172C195.869 71.004 195.961 70.808 195.961 70.584C195.961 70.368 195.873 70.196 195.697 70.068C195.529 69.932 195.265 69.78 194.905 69.612C194.593 69.468 194.341 69.34 194.149 69.228C193.957 69.108 193.793 68.948 193.657 68.748C193.521 68.548 193.453 68.3 193.453 68.004C193.453 67.54 193.621 67.16 193.957 66.864C194.301 66.568 194.765 66.42 195.349 66.42ZM198.35 69.672L198.314 66.564L199.238 66.48L199.214 69.588L199.238 72H198.302L198.35 69.672ZM198.794 64.044C198.954 64.044 199.082 64.092 199.178 64.188C199.274 64.284 199.322 64.416 199.322 64.584C199.322 64.76 199.27 64.9 199.166 65.004C199.07 65.108 198.934 65.16 198.758 65.16C198.59 65.16 198.458 65.112 198.362 65.016C198.274 64.92 198.23 64.784 198.23 64.608C198.23 64.44 198.278 64.304 198.374 64.2C198.478 64.096 198.618 64.044 198.794 64.044ZM203.248 66.408C203.992 66.408 204.568 66.652 204.976 67.14C205.392 67.62 205.6 68.3 205.6 69.18C205.6 70.108 205.384 70.828 204.952 71.34C204.52 71.844 203.904 72.096 203.104 72.096C202.352 72.096 201.768 71.856 201.352 71.376C200.944 70.888 200.74 70.204 200.74 69.324C200.74 68.396 200.956 67.68 201.388 67.176C201.828 66.664 202.448 66.408 203.248 66.408ZM203.188 67.08C202.684 67.08 202.3 67.252 202.036 67.596C201.772 67.94 201.64 68.444 201.64 69.108C201.64 69.876 201.768 70.452 202.024 70.836C202.288 71.22 202.668 71.412 203.164 71.412C203.668 71.412 204.052 71.244 204.316 70.908C204.58 70.572 204.712 70.068 204.712 69.396C204.712 68.636 204.58 68.06 204.316 67.668C204.06 67.276 203.684 67.08 203.188 67.08ZM210.442 68.268C210.45 67.94 210.374 67.684 210.214 67.5C210.054 67.316 209.818 67.224 209.506 67.224C209.002 67.224 208.458 67.508 207.874 68.076V69.588L207.922 72H206.974L207.034 69.672L206.986 66.564L207.886 66.48V67.284H207.958C208.454 66.844 208.962 66.56 209.482 66.432C210.082 66.432 210.538 66.572 210.85 66.852C211.17 67.132 211.326 67.532 211.318 68.052L211.294 69.612L211.342 72H210.382L210.442 68.268Z" fill="white"/>
<path d="M117.99 31.0573C126.501 30.8342 126.549 30.8787 126.57 38.7276C126.576 40.7107 126.59 42.694 126.566 44.6769C126.495 50.6854 125.531 51.4569 119.605 51.2185C116.547 51.0955 115.001 49.8992 114.997 46.7946C114.992 42.9969 114.883 39.1974 114.969 35.4022C115.011 33.5693 115.352 31.7158 117.99 31.0573Z" fill="#0DC0D2"/>
<path d="M160.883 35.7695C161.23 34.2229 161.302 33.0197 161.757 31.9864C162.24 30.8881 163.428 31.093 164.387 31.2615C165.476 31.4528 165.5 32.3939 165.343 33.2026C164.3 38.5697 163.214 43.9284 162.127 49.2869C161.771 51.0408 160.408 50.9993 159.043 51.0258C157.501 51.0557 156.63 50.5082 156.317 48.854C155.391 43.9685 154.272 39.1198 153.366 34.231C153.158 33.1067 152.496 31.4411 154.67 31.1781C156.678 30.9354 157.172 32.1179 157.407 33.8262C157.727 36.1549 158.261 38.4539 159.767 40.712C160.103 39.2039 160.44 37.6958 160.883 35.7695Z" fill="#0DBDCF"/>
<path d="M100.557 31.1127C104.093 31.0284 107.284 30.9835 107.454 35.2711C107.602 39.0038 108.482 43.2878 102.37 43.2765C99.4226 43.271 100.662 45.929 100.427 47.4903C100.187 49.08 100.737 50.964 98.1527 51.0185C95.5603 51.0732 95.837 49.2134 95.8241 47.5889C95.7914 43.4462 95.9885 39.2929 95.7551 35.1632C95.5627 31.7599 97.0219 30.6786 100.557 31.1127Z" fill="#0CB7CA"/>
<path d="M138.056 46.7571C138.122 42.3898 136.059 39.0098 135.226 35.3126C134.921 33.9574 132.957 32.1042 135.659 31.2901C137.902 30.6143 138.294 32.5661 138.716 34.2309C138.958 35.184 139.379 36.0912 139.746 37.0917C141.881 36.4633 141.302 34.3997 141.899 33.0628C142.55 31.6035 143.358 30.8734 144.881 31.2216C147.288 31.7719 145.727 33.2979 145.446 34.308C144.124 39.0569 141.694 43.5444 142.325 48.7329C142.53 50.421 141.644 51.1399 139.966 50.9866C137.276 50.7408 138.379 48.6124 138.056 46.7571Z" fill="#0DC0D2"/>
<path d="M122.356 42.8945C122.349 44.1891 122.356 45.0211 122.333 45.8523C122.305 46.8809 122.2 47.9648 120.88 48.0234C119.464 48.0863 119.434 46.9244 119.425 45.9374C119.395 42.6109 119.396 39.2838 119.432 35.9574C119.44 35.1548 119.472 34.2192 120.59 34.1092C121.902 33.9802 122.301 34.8383 122.319 35.9446C122.356 38.1065 122.346 40.2692 122.356 42.8945Z" fill="#051B28"/>
<path d="M103.157 38.7776C101.43 40.8067 100.482 40.1686 100.367 38.1464C100.293 36.8368 99.6619 34.5719 101.338 34.4391C104.124 34.2182 102.997 36.8299 103.157 38.7776Z" fill="#043748"/>
<path d="M52.4985 16.7103C56.2449 13.1446 57.9407 13.1568 61.214 16.3956C63.7336 18.8886 66.2456 21.3895 68.8824 24.1203C70.5917 26.8126 70.567 29.1503 68.2552 31.5779C65.6706 33.9949 63.9112 37.1521 59.7786 36.4926C58.0987 36.2754 56.6462 36.2946 54.8327 36.3341C52.3862 36.87 51.6604 35.4926 51.5869 33.8772C51.3316 28.2651 50.4849 22.6043 52.4985 16.7103Z" fill="#045468"/>
<path d="M52.921 16.6855C53.3327 20.8474 53.0909 23.6094 53.3643 27.2542C53.5769 30.0888 53.7445 32.5005 54.1562 36.2462C51.1437 39.8164 48.066 42.8902 44.6137 46.2808C44.6137 44.5698 44.6137 43.3213 44.6137 42.0727C44.6137 35.83 44.2743 33.3329 44.2743 26.6739C46.7448 22.0959 50.0527 19.6172 52.921 16.6855Z" fill="#057085"/>
<path d="M44.4167 26.341C44.8458 33.4161 44.8667 39.2337 44.8458 46.3178C41.9237 48.1988 40.7284 49.6473 36.4512 51.2287C36.1992 48.8851 36.2915 49.1478 36.0395 45.8184C35.6277 41.6565 35.4041 42.669 34.8043 35.4138C38.1739 32.5578 41.5057 29.605 44.4167 26.341Z" fill="#088A9E"/>
<path d="M56.4978 78.5571C57.3995 81.1545 57.2065 83.6322 57.1718 86.091C57.1569 87.1451 57.3576 88.4998 56.0799 88.9187C54.8492 89.3223 54.1576 88.1291 53.4157 87.3896C50.427 84.4107 47.4805 81.3885 44.3759 78.1469C44.2719 76.6367 43.3398 75.5361 43.6447 73.925C44.3035 72.5545 45.4984 71.9814 46.2076 70.6159C47.4961 69.2778 48.7859 68.3715 49.9703 66.9259C51.1124 65.6646 51.9909 64.4854 53.9309 65.2478C54.9501 66.904 55.7152 68.3992 56.4938 70.1811C55.8608 71.3895 56.0283 72.3861 56.4399 73.5462C56.6844 74.8488 56.7334 75.9922 56.7359 77.4768C56.4391 78.1405 56.0938 78.2527 55.7066 78.2722C55.9016 78.3351 56.1088 78.3233 56.4978 78.5571Z" fill="#045468"/>
<path d="M53.9814 43.5147C55.6386 41.5795 57.1863 39.9169 58.9591 38.1039C61.1932 36.1684 63.0923 36.5223 64.9256 38.25C66.7038 39.9258 68.4143 41.6655 70.0899 43.4492C71.6951 45.1579 71.8379 46.7279 70.0825 48.7088C68.1877 50.8353 66.4254 52.6857 64.4112 54.649C61.7623 54.7384 59.9216 53.9505 58.9189 51.4911C58.2276 49.7957 56.4947 48.9911 55.1351 47.8861C53.8146 46.8126 52.6066 45.6839 53.9814 43.5147Z" fill="#0BABBE"/>
<path d="M53.8412 43.3954C57.3209 47.0244 61.6237 49.8516 64.0261 54.6256C62.7071 56.3151 61.255 57.8684 59.5663 59.5414C58.1363 60.5326 57.0539 60.6876 55.6332 59.8423C52.8266 58.1724 50.2988 56.1376 47.7183 54.1693C46.4565 53.2068 46.2599 51.9386 47.3029 50.2851C49.4594 47.8426 51.5255 45.6956 53.8412 43.3954Z" fill="#0EC6D8"/>
<path d="M70.1958 48.8579C68.7345 43.2601 64.5499 40.3556 59.4724 37.9894C59.2765 37.5787 59.3689 37.2039 59.5062 36.5426C62.1938 35.3261 63.7855 32.9481 66.2613 31.3178C71.3069 32.1294 76.1067 37.0559 76.6033 41.8323C74.5667 44.3402 72.5042 46.5356 70.1958 48.8579Z" fill="#088DA0"/>
<path d="M76.8754 42.0099C73.3521 38.6497 70.0749 35.1546 66.6492 31.4183C67.5366 29.2092 69.0718 27.4462 68.9897 24.6838C71.7116 27.03 74.4671 29.6591 77.1152 32.3944C80.5613 35.9541 80.5235 37.8811 76.8754 42.0099Z" fill="#067489"/>
<path d="M47.1506 50.1228C49.1071 52.7487 51.8258 54.5294 54.3513 56.2386C55.8583 57.2584 57.3833 58.2994 59.0865 59.5403C57.8223 61.2433 56.3149 62.8257 54.5727 64.5381C50.625 64.7931 48.1174 62.382 45.9964 59.9355C44.8307 58.5909 43.5926 56.9788 42.8898 54.8731C44.2112 53.1437 45.5595 51.6998 47.1506 50.1228Z" fill="#0CB7CA"/>
<path d="M35.2522 35.118C35.216 35.4138 36.1732 45.5581 36.4512 51.2288C34.8042 51.2288 31.5465 51.2288 29.3101 51.2288C30.3113 47.6035 26.383 43.5096 29.4516 40.408C32.3338 37.4947 35.2885 34.8223 35.2522 35.118Z" fill="#0BA3B6"/>
<path d="M42.6246 54.699C47.5921 56.5983 50.1428 61.1566 54.137 64.4651C54.338 64.6682 54.294 65.0454 54.2395 65.2271C53.2767 66.1999 52.3684 66.991 51.244 67.9239C49.0918 68.8125 47.6939 68.528 46.0156 66.8924C44.1725 65.0961 42.8297 62.8161 40.6611 61.3381C39.554 60.5836 39.1462 59.4391 39.8602 57.8161C40.7544 56.6231 41.5704 55.7167 42.6246 54.699Z" fill="#0BA3B6"/>
<path d="M30.275 39.5756C30.275 43.3213 30.6869 51.2288 30.2751 51.2288C29.8633 51.2288 17.9227 51.2288 17.9227 51.2288C22.4519 46.9386 26.5693 43.3213 30.275 39.5756Z" fill="#0CB2C4"/>
<path d="M45.2733 73.6838C44.9453 75.14 44.7331 76.2758 44.3772 77.6616C41.5281 75.1959 38.8273 72.4755 36.1157 69.7663C34.1997 67.8519 33.322 65.717 34.8591 62.892C39.8109 63.9885 45.2456 69.6006 45.2733 73.6838Z" fill="#057085"/>
<path d="M39.7138 57.6574C43.3252 61.1791 46.7865 64.7488 50.8773 67.9352C50.0359 69.0567 49.0437 70.0477 47.827 71.178C43.1312 69.737 40.6338 65.6385 37.1172 62.8394C36.3481 62.2272 36.861 61.0487 37.5309 59.9303C38.3201 59.0476 38.9046 58.4165 39.7138 57.6574Z" fill="#0993A6"/>
<path d="M37.5111 59.8022C38.132 63.101 41.5818 63.9629 43.2453 66.3487C44.3904 67.991 45.9316 69.351 47.4491 71.0773C46.9197 72.0939 46.237 72.8704 45.3559 73.8255C42.6135 69.7419 38.466 66.9599 35.2257 62.9463C35.451 61.4867 36.4072 60.7376 37.5111 59.8022Z" fill="#088599"/>
<path d="M56.6267 74.9512C55.3915 72.8703 55.8032 72.0379 56.2149 70.3732C56.6267 68.7084 56.5921 73.764 56.6267 74.9512Z" fill="#045468"/>
<path d="M56.6267 79.3293C56.0749 79.3293 55.315 78.4792 54.9801 77.8645C54.956 77.8203 55.8032 77.0321 56.3947 76.8322C56.6267 77.0321 57.0384 77.8645 56.6267 79.3293Z" fill="#045468"/>
<path d="M52.4985 16.7103C56.2449 13.1446 57.9407 13.1568 61.214 16.3956C63.7336 18.8886 66.2456 21.3895 68.8824 24.1203C70.5917 26.8126 70.567 29.1503 68.2552 31.5779C65.6706 33.9949 63.9112 37.1521 59.7786 36.4926C58.0987 36.2754 56.6462 36.2946 54.8327 36.3341C52.3862 36.87 51.6604 35.4926 51.5869 33.8772C51.3316 28.2651 50.4849 22.6043 52.4985 16.7103Z" fill="#045468"/>
<path d="M52.921 16.6855C53.3327 20.8474 53.0909 23.6094 53.3643 27.2542C53.5769 30.0888 53.7445 32.5005 54.1562 36.2462C51.1437 39.8164 48.066 42.8902 44.6137 46.2808C44.6137 44.5698 44.6137 43.3213 44.6137 42.0727C44.6137 35.83 44.2743 33.3329 44.2743 26.6739C46.7448 22.0959 50.0527 19.6172 52.921 16.6855Z" fill="#057085"/>
<path d="M44.4167 26.341C44.8458 33.4161 44.8667 39.2337 44.8458 46.3178C41.9237 48.1988 40.7284 49.6473 36.4512 51.2287C36.1992 48.8851 36.2915 49.1478 36.0395 45.8184C35.6277 41.6565 35.4041 42.669 34.8043 35.4138C38.1739 32.5578 41.5057 29.605 44.4167 26.341Z" fill="#088A9E"/>
<path d="M56.4978 78.5571C57.3995 81.1545 57.2065 83.6322 57.1718 86.091C57.1569 87.1451 57.3576 88.4998 56.0799 88.9187C54.8492 89.3223 54.1576 88.1291 53.4157 87.3896C50.427 84.4107 47.4805 81.3885 44.3759 78.1469C44.2719 76.6367 43.3398 75.5361 43.6447 73.925C44.3035 72.5545 45.4984 71.9814 46.2076 70.6159C47.4961 69.2778 48.7859 68.3715 49.9703 66.9259C51.1124 65.6646 51.9909 64.4854 53.9309 65.2478C54.9501 66.904 55.7152 68.3992 56.4938 70.1811C55.8608 71.3895 56.0283 72.3861 56.4399 73.5462C56.6844 74.8488 56.7334 75.9922 56.7359 77.4768C56.4391 78.1405 56.0938 78.2527 55.7066 78.2722C55.9016 78.3351 56.1088 78.3233 56.4978 78.5571Z" fill="#045468"/>
<path d="M53.9814 43.5147C55.6386 41.5795 57.1863 39.9169 58.9591 38.1039C61.1932 36.1684 63.0923 36.5223 64.9256 38.25C66.7038 39.9258 68.4143 41.6655 70.0899 43.4492C71.6951 45.1579 71.8379 46.7279 70.0825 48.7088C68.1877 50.8353 66.4254 52.6857 64.4112 54.649C61.7623 54.7384 59.9216 53.9505 58.9189 51.4911C58.2276 49.7957 56.4947 48.9911 55.1351 47.8861C53.8146 46.8126 52.6066 45.6839 53.9814 43.5147Z" fill="#0BABBE"/>
<path d="M53.8412 43.3954C57.3209 47.0244 61.6237 49.8516 64.0261 54.6256C62.7071 56.3151 61.255 57.8684 59.5663 59.5414C58.1363 60.5326 57.0539 60.6876 55.6332 59.8423C52.8266 58.1724 50.2988 56.1376 47.7183 54.1693C46.4565 53.2068 46.2599 51.9386 47.3029 50.2851C49.4594 47.8426 51.5255 45.6956 53.8412 43.3954Z" fill="#0EC6D8"/>
<path d="M70.1958 48.8579C68.7345 43.2601 64.5499 40.3556 59.4724 37.9894C59.2765 37.5787 59.3689 37.2039 59.5062 36.5426C62.1938 35.3261 63.7855 32.9481 66.2613 31.3178C71.3069 32.1294 76.1067 37.0559 76.6033 41.8323C74.5667 44.3402 72.5042 46.5356 70.1958 48.8579Z" fill="#088DA0"/>
<path d="M76.8754 42.0099C73.3521 38.6497 70.0749 35.1546 66.6492 31.4183C67.5366 29.2092 69.0718 27.4462 68.9897 24.6838C71.7116 27.03 74.4671 29.6591 77.1152 32.3944C80.5613 35.9541 80.5235 37.8811 76.8754 42.0099Z" fill="#067489"/>
<path d="M47.1506 50.1228C49.1071 52.7487 51.8258 54.5294 54.3513 56.2386C55.8583 57.2584 57.3833 58.2994 59.0865 59.5403C57.8223 61.2433 56.3149 62.8257 54.5727 64.5381C50.625 64.7931 48.1174 62.382 45.9964 59.9355C44.8307 58.5909 43.5926 56.9788 42.8898 54.8731C44.2112 53.1437 45.5595 51.6998 47.1506 50.1228Z" fill="#0CB7CA"/>
<path d="M35.2522 35.118C35.216 35.4138 36.1732 45.5581 36.4512 51.2288C34.8042 51.2288 31.5465 51.2288 29.3101 51.2288C30.3113 47.6035 26.383 43.5096 29.4516 40.408C32.3338 37.4947 35.2885 34.8223 35.2522 35.118Z" fill="#0BA3B6"/>
<path d="M42.6246 54.699C47.5921 56.5983 50.1428 61.1566 54.137 64.4651C54.338 64.6682 54.294 65.0454 54.2395 65.2271C53.2767 66.1999 52.3684 66.991 51.244 67.9239C49.0918 68.8125 47.6939 68.528 46.0156 66.8924C44.1725 65.0961 42.8297 62.8161 40.6611 61.3381C39.554 60.5836 39.1462 59.4391 39.8602 57.8161C40.7544 56.6231 41.5704 55.7167 42.6246 54.699Z" fill="#0BA3B6"/>
<path d="M30.275 39.5756C30.275 43.3213 30.6869 51.2288 30.2751 51.2288C29.8633 51.2288 17.9227 51.2288 17.9227 51.2288C22.4519 46.9386 26.5693 43.3213 30.275 39.5756Z" fill="#0CB2C4"/>
<path d="M45.2733 73.6838C44.9453 75.14 44.7331 76.2758 44.3772 77.6616C41.5281 75.1959 38.8273 72.4755 36.1157 69.7663C34.1997 67.8519 33.322 65.717 34.8591 62.892C39.8109 63.9885 45.2456 69.6006 45.2733 73.6838Z" fill="#057085"/>
<path d="M39.7138 57.6574C43.3252 61.1791 46.7865 64.7488 50.8773 67.9352C50.0359 69.0567 49.0437 70.0477 47.827 71.178C43.1312 69.737 40.6338 65.6385 37.1172 62.8394C36.3481 62.2272 36.861 61.0487 37.5309 59.9303C38.3201 59.0476 38.9046 58.4165 39.7138 57.6574Z" fill="#0993A6"/>
<path d="M37.5111 59.8022C38.132 63.101 41.5818 63.9629 43.2453 66.3487C44.3904 67.991 45.9316 69.351 47.4491 71.0773C46.9197 72.0939 46.237 72.8704 45.3559 73.8255C42.6135 69.7419 38.466 66.9599 35.2257 62.9463C35.451 61.4867 36.4072 60.7376 37.5111 59.8022Z" fill="#088599"/>
<path d="M56.6267 74.9512C55.3915 72.8703 55.8032 72.0379 56.2149 70.3732C56.6267 68.7084 56.5921 73.764 56.6267 74.9512Z" fill="#045468"/>
<path d="M56.6267 79.3293C56.0749 79.3293 55.315 78.4792 54.9801 77.8645C54.956 77.8203 55.8032 77.0321 56.3947 76.8322C56.6267 77.0321 57.0384 77.8645 56.6267 79.3293Z" fill="#045468"/>
</svg>
